HIERARCHY
ROOT hip
{
	OFFSET 0.000000 0.000000 0.000000 
	CHANNELS 6 Xposition Yposition Zposition Xrotation Zrotation Yrotation
	JOINT abdomen
	{
		OFFSET 0.000000 3.402643 0.000000 
		CHANNELS 3 Xrotation Zrotation Yrotation
		JOINT chest
		{
			OFFSET 0.000000 8.438565 -0.680529 
			CHANNELS 3 Xrotation Zrotation Yrotation
			JOINT neck
			{
				OFFSET 0.000000 10.207942 -0.272212 
				CHANNELS 3 Xrotation Zrotation Yrotation
				JOINT head
				{
					OFFSET 0.000000 3.130431 0.000000 
					CHANNELS 3 Xrotation Zrotation Yrotation
					End Site
					{
						OFFSET 0.000000 3.130435 0.000000 
					}
				}
			}
			JOINT lCollar
			{
				OFFSET 3.470700 6.669187 -0.816635 
				CHANNELS 3 Yrotation Zrotation Xrotation
				JOINT lShldr
				{
					OFFSET 3.198488 0.000000 0.000000 
					CHANNELS 3 Zrotation Yrotation Xrotation
					JOINT lForeArm
					{
						OFFSET 10.139888 0.000000 0.000000 
						CHANNELS 3 Yrotation Zrotation Xrotation
						JOINT lHand
						{
							OFFSET 8.370511 0.000000 0.000000 
							CHANNELS 3 Zrotation Yrotation Xrotation
							End Site
							{
								OFFSET 4.083176 0.000000 0.000000 
							}
						}
					}
				}
			}
			JOINT rCollar
			{
				OFFSET -3.470700 6.669187 -0.816635 
				CHANNELS 3 Yrotation Zrotation Xrotation
				JOINT rShldr
				{
					OFFSET -3.198488 0.000000 0.000000 
					CHANNELS 3 Zrotation Yrotation Xrotation
					JOINT rForeArm
					{
						OFFSET -10.139888 0.000000 0.000000 
						CHANNELS 3 Yrotation Zrotation Xrotation
						JOINT rHand
						{
							OFFSET -8.370511 0.000000 0.000000 
							CHANNELS 3 Zrotation Yrotation Xrotation
							End Site
							{
								OFFSET -4.083176 0.000000 0.000000 
							}
						}
					}
				}
			}
		}
	}
	JOINT lThigh
	{
		OFFSET 5.308129 -1.633274 1.361059 
		CHANNELS 3 Xrotation Zrotation Yrotation
		JOINT lShin
		{
			OFFSET -2.041588 -20.007561 0.000000 
			CHANNELS 3 Xrotation Zrotation Yrotation
			JOINT lFoot
			{
				OFFSET 0.000000 -19.190928 -1.224953 
				CHANNELS 3 Xrotation Yrotation Zrotation
				End Site
				{
					OFFSET 0.000000 -2.449906 4.627600 
				}
			}
		}
	}
	JOINT rThigh
	{
		OFFSET -5.308129 -1.633274 1.361059 
		CHANNELS 3 Xrotation Zrotation Yrotation
		JOINT rShin
		{
			OFFSET 2.041588 -20.007561 0.000000 
			CHANNELS 3 Xrotation Zrotation Yrotation
			JOINT rFoot
			{
				OFFSET 0.000000 -19.190928 -1.224953 
				CHANNELS 3 Xrotation Yrotation Zrotation
				End Site
				{
					OFFSET 0.000000 -2.449906 4.627600 
				}
			}
		}
	}
}
MOTION
Frames: 11
Frame Time: 0.016667
2.281435 89.821632 7.048276 20.316217 -12.174417 -49.001408 60.040047 -11.511722 18.820961 0.148643 3.467131 5.418367 -18.451176 -6.600234 1.549625 0.595133 -9.533165 25.235561 -4.951570 -12.982121 -0.690073 -43.009430 -1.269893 -8.304933 -56.495449 -1.957416 0.253754 12.244229 -14.551826 24.083723 19.286680 -1.450606 0.077308 39.932156 19.143042 3.236787 22.061460 -5.000000 -18.546114 6.154765 -30.000000 24.725388 -9.219861 31.968451 24.865284 112.668732 2.481261 -5.237683 -1.739817 13.121507 1.866181 -78.825592 4.736371 -18.215393 125.928474 -6.023859 7.420743 -37.786823 -3.276390 10.099236 
2.087072 89.765350 7.104873 19.259741 -11.378705 -49.352932 60.157143 -12.383056 18.147442 0.154123 3.673033 4.949616 -18.190084 -6.253452 1.426271 0.724318 -9.655522 25.711109 -5.531714 -11.655750 -0.617421 -42.210320 -2.526126 -7.723526 -56.845783 -0.797739 -0.506868 10.890264 -13.909065 24.177668 19.481808 -1.304317 0.069749 38.479454 19.832317 2.966810 22.668533 -5.000000 -18.774784 6.718237 -30.000000 23.415779 -8.115959 30.777996 25.789341 111.042870 2.529546 -5.812998 -1.470364 12.327493 0.843669 -81.555351 7.149126 -18.401115 120.535446 -6.132573 9.327548 -36.664108 -3.703735 12.525178 
1.889924 89.724762 7.192882 18.239523 -10.624238 -49.415276 60.293972 -12.918173 17.475008 0.135962 3.869318 4.461398 -17.807371 -6.040298 1.334059 0.885199 -9.827971 26.094109 -6.085952 -10.495155 -0.555635 -41.349388 -3.809503 -7.158953 -57.083042 0.327627 -1.230466 9.359684 -13.279751 24.337919 19.755024 -1.099512 0.059165 37.050507 20.441143 2.706141 23.177639 -5.000000 -19.190245 7.063449 -29.630306 22.242191 -7.297271 29.493067 26.242458 109.454346 2.510555 -6.242405 -1.482028 11.506830 -0.375656 -83.624649 9.414415 -18.243170 114.620529 -5.954947 11.398760 -35.465809 -4.469710 14.966736 
1.655982 89.708557 7.375061 17.252964 -10.222909 -48.903801 60.560638 -12.734800 16.862259 0.154658 4.065618 3.963453 -17.410765 -6.009066 1.279193 1.104702 -10.100830 26.415379 -6.479175 -9.744168 -0.515154 -40.264664 -5.056675 -6.696748 -57.270847 1.194612 -1.778203 7.663912 -12.924286 24.637810 19.959904 -0.875202 0.047572 35.779507 21.222958 2.595928 23.407211 -5.000000 -19.767717 7.407058 -28.472771 21.166651 -6.417596 28.304735 26.118549 107.938461 2.373563 -6.414730 -2.058927 10.956504 -1.267002 -84.324890 11.132613 -17.465084 109.535065 -5.303759 12.453883 -34.072205 -5.177254 17.327799 
1.366829 89.728897 7.698494 16.284662 -10.312724 -47.515598 61.017475 -11.466490 16.375357 0.210649 4.242335 3.475271 -16.984243 -6.243696 1.296079 1.430966 -10.495880 26.631247 -6.634180 -9.607613 -0.508106 -38.852417 -6.264607 -6.369649 -57.400116 1.659697 -2.066228 5.710815 -12.971270 25.206936 20.067156 -0.621634 0.034466 34.754925 22.259226 2.719984 23.191938 -5.000000 -20.599207 7.806537 -27.758718 20.198231 -5.401818 27.201088 25.155136 106.514336 2.080938 -6.118328 -3.468571 10.830585 -1.759145 -82.935692 11.992088 -15.611127 105.698906 -4.161369 11.923826 -32.390404 -5.823467 19.525579 
1.077656 89.749252 8.021988 15.318351 -10.387592 -46.125141 61.472351 -10.189352 15.908245 0.265229 4.428786 2.987139 -16.556614 -6.479803 1.302347 1.756026 -10.890347 26.838953 -6.797351 -9.472209 -0.491490 -37.451717 -7.485416 -6.077229 -57.526833 2.134363 -2.357372 3.770620 -12.981371 25.750660 20.174402 -0.371434 0.012193 33.718849 23.301973 2.828542 22.981817 -5.000000 -21.430941 8.183084 -27.036427 19.259710 -4.405565 26.128181 24.157387 105.138306 1.807603 -5.830272 -4.829156 10.682279 -2.296254 -81.497017 12.812323 -13.709133 101.864113 -3.048382 11.356898 -30.693129 -6.389699 21.740616 
0.791818 89.766724 8.432388 14.828721 -10.746600 -45.213531 61.395950 -8.587631 16.252325 0.384248 4.585117 2.860418 -15.985532 -7.206738 1.393829 2.388661 -11.429575 26.722185 -6.732388 -8.711531 -0.450673 -37.537720 -7.808387 -6.066158 -58.839123 1.987729 -2.148818 2.614302 -12.381004 27.421875 20.419352 -1.532034 0.072191 33.887978 24.478455 3.133072 22.011095 -5.000000 -21.930267 9.639302 -27.011942 18.799839 -2.882602 25.610052 24.362076 103.885460 1.700057 -5.997453 -5.145820 11.179903 -1.403172 -79.785202 13.759413 -12.939974 101.786789 -2.999550 11.099697 -31.466805 -4.170510 15.463400 
0.505987 89.784187 8.842813 14.323295 -11.101821 -44.299446 61.332161 -7.004689 16.600843 0.502894 4.741459 2.733707 -15.414057 -7.935129 1.477184 3.022287 -11.963294 26.586914 -6.677814 -7.960600 -0.410534 -37.632847 -8.132230 -6.051124 -60.151005 1.833657 -1.948629 1.496687 -11.728619 29.070684 20.655750 -2.692631 0.132618 34.082851 25.654383 3.452665 21.045193 -5.000000 -22.425684 11.105099 -26.962517 18.348606 -1.389207 25.091429 24.527506 102.652618 1.592589 -6.152016 -5.459042 11.645215 -0.485249 -78.054092 14.648792 -12.143435 101.710258 -2.937717 10.836695 -31.884466 -2.318647 9.080910 
0.303623 89.866135 9.211090 14.088677 -11.376354 -43.876125 61.293392 -5.674399 17.264893 0.626474 4.721621 2.861163 -15.141221 -8.678354 1.592443 3.401477 -12.464562 26.268703 -6.462158 -6.341700 -0.325879 -38.880138 -8.112449 -6.061109 -62.070313 1.510129 -1.625184 0.773771 -11.169780 30.326443 20.769447 -4.672420 0.235101 34.734188 26.959377 3.553909 20.470303 -5.000000 -22.317282 12.640008 -26.906385 18.328518 -0.099679 24.672989 25.028873 101.224358 1.427458 -6.102092 -3.946918 11.998341 -0.786816 -77.117996 15.615406 -11.280367 101.785995 -2.782900 10.225388 -31.602381 -2.070738 6.162235 
0.156925 89.991066 9.551262 14.013332 -11.592243 -43.775642 61.290443 -4.530809 18.149584 0.761238 4.584380 3.143775 -15.066859 -9.420050 1.717456 3.603592 -12.944556 25.837605 -6.148969 -4.147386 -0.211857 -40.887978 -7.849939 -6.104071 -64.399300 1.046980 -1.242592 0.312124 -10.689379 31.297842 20.802210 -7.198315 0.367874 35.688507 28.359102 3.516094 20.156101 -5.000000 -21.803896 14.206293 -26.870239 18.613745 1.005518 24.296305 25.692566 99.617691 1.212427 -5.908701 -1.123943 12.288745 -1.908324 -76.716866 16.562870 -10.415245 101.969597 -2.577420 9.390500 -30.975857 -2.511753 5.686190 
0.033419 90.142708 9.883796 14.013499 -11.672743 -43.659454 61.244305 -3.454035 18.981833 0.853301 4.466837 3.349221 -15.105209 -10.158704 1.863360 3.783913 -13.422700 25.448391 -5.781342 -1.806767 -0.091042 -43.091389 -7.475559 -6.163312 -66.628372 0.503449 -0.881200 0.054371 -10.475215 31.824627 20.841215 -9.753430 0.503161 36.588612 29.734037 3.417323 20.129354 -5.000000 -21.008181 15.530519 -26.735106 18.845276 1.890971 23.802898 26.214930 97.867752 1.007587 -5.874668 1.448569 12.191422 -2.976555 -76.319244 17.332527 -9.627785 102.063904 -2.422935 8.825200 -30.448997 -3.160022 4.961452 
